<svg id="visual" viewBox="0 0 960 300" width="960" height="300" xmlns="http://www.w3.org/2000/svg" xmlns:xlink="http://www.w3.org/1999/xlink" version="1.1"><path d="M0 214L120 199L240 203L360 197L480 202L600 196L720 195L840 192L960 199L960 301L840 301L720 301L600 301L480 301L360 301L240 301L120 301L0 301Z" fill="#eaedec"></path><path d="M0 221L120 220L240 229L360 224L480 225L600 214L720 230L840 211L960 223L960 301L840 301L720 301L600 301L480 301L360 301L240 301L120 301L0 301Z" fill="#a3adaa"></path><path d="M0 250L120 235L240 251L360 237L480 245L600 248L720 253L840 251L960 238L960 301L840 301L720 301L600 301L480 301L360 301L240 301L120 301L0 301Z" fill="#62726d"></path><path d="M0 264L120 275L240 261L360 274L480 266L600 271L720 274L840 262L960 260L960 301L840 301L720 301L600 301L480 301L360 301L240 301L120 301L0 301Z" fill="#263b37"></path></svg>