<svg id="visual" viewBox="0 0 675 900" width="675" height="900" xmlns="http://www.w3.org/2000/svg" xmlns:xlink="http://www.w3.org/1999/xlink" version="1.1"><path d="M0 643L84 598L169 612L253 594L338 608L422 590L506 586L591 577L675 600L675 901L591 901L506 901L422 901L338 901L253 901L169 901L84 901L0 901Z" fill="#eaedec"></path><path d="M0 666L84 662L169 689L253 674L338 677L422 645L506 691L591 634L675 670L675 901L591 901L506 901L422 901L338 901L253 901L169 901L84 901L0 901Z" fill="#a3adaa"></path><path d="M0 751L84 708L169 754L253 712L338 736L422 746L506 760L591 755L675 716L675 901L591 901L506 901L422 901L338 901L253 901L169 901L84 901L0 901Z" fill="#62726d"></path><path d="M0 794L84 827L169 785L253 825L338 801L422 814L506 825L591 788L675 783L675 901L591 901L506 901L422 901L338 901L253 901L169 901L84 901L0 901Z" fill="#263b37"></path></svg>